# xmcd
# 
# Track frame offsets:
#     150
#     13475
#     38485
#     52925
#     67527
#     87500
#     104465
#     125142
#     143430
#     168532
#     181372
#     198560
#     221477
#     238222
# 
# Disc length: 3449
# 
# Revision: 1
# Processed by: cddbd v1.5.2PL0 Copyright (c) Steve Scherf et al.
# Submitted via: BonkEnc v1.0.8
# 
DISCID=c50d770e
DTITLE=Aaron Watson - Shut Up And Dance
DYEAR=2002
DGENRE=Country
TTITLE0=I Don't Want You To Go (But I Need You To Leave)
TTITLE1=The Notel Motel
TTITLE2=Heaven Help The Heart
TTITLE3=Something With A Swing To It
TTITLE4=Shut Up And Dance
TTITLE5=Some Never Will
TTITLE6=Stuck Betwenn A Rock And A Heartache
TTITLE7=Wish I Could Say I'd Been Drinking
TTITLE8=Lonely Lubbock Lights
TTITLE9=Wrangler Butts
TTITLE10=Messing With A Man On A Mission
TTITLE11=Kentucky Coal Miner's Prayer
TTITLE12=Off The Record
TTITLE13=Stuck Between A Rock And A Heartache (acoustic)
EXTD=
EXTT0=
EXTT1=
EXTT2=
EXTT3=
EXTT4=
EXTT5=
EXTT6=
EXTT7=
EXTT8=
EXTT9=
EXTT10=
EXTT11=
EXTT12=
EXTT13=
PLAYORDER=
